# xmcd
#
# Track frame offsets: 
#        150
#        12731
#        29959
#        43294
#        55097
#        69280
#        84394
#        98291
#        111806
#        122821
#        134565
#        148321
#        159812
#        172316
#        185572
#        203025
#        218930
#        232467
#        243141
#        258886
#        272589
#        284012
#        296669
#        309187
#        321487
#
# Disc length: 4469 seconds
#
# Revision: 0
# Processed by: cddbd v1.5.2PL0 Copyright (c) Steve Scherf et al.
# Submitted via: ExactAudioCopy v0.99pb4
#
DISCID=88117319
DTITLE=Various Artist - 53 Clasicos Originales del Soul CD2
DYEAR=1900
DGENRE=Soul
TTITLE0=Aretha franklin - You make me feel like
TTITLE1=Otis redding - Try a little terderness
TTITLE2=Ben e.king - Stand by me
TTITLE3=Sam and Dave - Hold on, l'm coming
TTITLE4=Wilson pickett - Mustang sally
TTITLE5=Percy sledge - Worm and tender love
TTITLE6=The drifters - On broodway
TTITLE7=King curtis - Memphis soul stew
TTITLE8=Aretha franklin - Respect
TTITLE9=Rufus thomas - Wallkin ' the dog
TTITLE10=Eddie floyd - Big birg
TTITLE11=Sam and Dave - Wrop it up
TTITLE12=R.B. Greaves - Take a letter,maria
TTITLE13=Otis redding - I've been loving you too long
TTITLE14=Brook benton - Rainy night in georgia
TTITLE15=Aretha franklin - Spanish harlem
TTITLE16=Wilson Pickett - 634-5789
TTITLE17=The coasters - Charlie brown
TTITLE18=Ray charles - The right time
TTITLE19=Otis redding &Carla thomas - Tramp
TTITLE20=The drifters - Saturday night at the mivies
TTITLE21=Aretha franklin - Chain of fools
TTITLE22=Sam and Dave - I thank you
TTITLE23=Otis redding - Fa,fa,fa,fa
TTITLE24=Percy sledge - Take time to know her
EXTD=
EXTT0=
EXTT1=
EXTT2=
EXTT3=
EXTT4=
EXTT5=
EXTT6=
EXTT7=
EXTT8=
EXTT9=
EXTT10=
EXTT11=
EXTT12=
EXTT13=
EXTT14=
EXTT15=
EXTT16=
EXTT17=
EXTT18=
EXTT19=
EXTT20=
EXTT21=
EXTT22=
EXTT23=
EXTT24=
PLAYORDER=
